<?xml version="1.0" encoding="UTF-8" standalone="no"?><!DOCTYPE svg PUBLIC "-//W3C//DTD SVG 1.1//EN" "http://www.w3.org/Graphics/SVG/1.1/DTD/svg11.dtd"><svg width="100%" height="100%" viewBox="0 0 123 123" version="1.1" xmlns="http://www.w3.org/2000/svg" xmlns:xlink="http://www.w3.org/1999/xlink" xml:space="preserve" xmlns:serif="http://www.serif.com/" style="fill-rule:evenodd;clip-rule:evenodd;stroke-linejoin:round;stroke-miterlimit:2;"><rect id="アートボード3" x="0" y="0" width="122.88" height="122.88" style="fill:none;"/><path d="M31.306,91.216c-0.179,-0.258 -0.355,-0.517 -0.527,-0.779l-0.075,-0.113c-1.561,-2.381 -2.88,-4.935 -3.923,-7.625c-0.471,0.071 -0.952,0.107 -1.442,0.108c-4.448,0.002 -8.199,-3.009 -9.321,-7.103c1.723,1.592 4.026,2.564 6.554,2.563c0.93,-0.001 1.83,-0.133 2.681,-0.379c-0.796,-3.18 -1.219,-6.508 -1.221,-9.933c-0.009,-19.61 13.811,-36.022 32.239,-40.005c4.43,-3.834 10.205,-6.156 16.518,-6.159c0.681,0 1.356,0.026 2.023,0.079c3.964,3.887 6.584,9.118 7.216,14.613c0.729,6.34 -1.119,12.791 -4.973,17.73c-1.086,1.392 -2.323,2.653 -3.676,3.765c0.417,0.111 0.417,0.111 0,0c-0.68,0.559 -1.389,1.081 -2.123,1.563c0.869,0.132 1.722,0.342 2.549,0.625c0.601,-0.454 0.604,-0.451 0,0c2.137,0.722 4.102,1.929 5.692,3.527c3.466,3.484 4.96,8.703 3.93,13.443c-0.511,2.35 -1.617,4.561 -3.176,6.385c-0.506,0.592 -1.06,1.14 -1.653,1.64c0.423,0.005 0.423,0.006 0,0c-1.04,0.877 -2.199,1.605 -3.434,2.163l0.273,-0.035c1.273,-0.146 2.553,-0.187 3.825,-0.127l0.062,0.003c5.277,0.256 10.435,2.234 14.468,5.601c4.553,3.8 7.599,9.273 8.479,15.116c-4.635,-5.218 -11.396,-8.506 -18.917,-8.502c-4.5,0.002 -8.727,1.182 -12.388,3.249c-3.161,1.669 -6.077,3.741 -8.681,6.147c-1.085,1.069 -2.325,1.981 -3.684,2.698l-0.002,0.001l-0.054,0.028l-0.021,0.011l0,0c-2.154,1.123 -4.601,1.759 -7.196,1.76c-2.971,0.002 -5.75,-0.831 -8.117,-2.272c0.24,-0.085 0.478,-0.176 0.713,-0.273c3.425,-1.885 6.068,-5.017 7.317,-8.783c-4.56,4.48 -10.81,7.247 -17.702,7.25c-11.661,0.006 -21.493,-7.901 -24.414,-18.643c3.52,1.855 7.528,2.905 11.78,2.903c3.707,-0.002 7.228,-0.803 10.401,-2.24Zm67.064,0.296c-0.404,0.572 -0.823,1.133 -1.255,1.682c-1.507,-1.575 -3.207,-2.963 -5.066,-4.115c-3.221,-1.996 -7.008,-3.282 -10.776,-3.741c3.678,-3.958 5.228,-9.696 4.068,-14.928c-0.586,-2.647 -1.839,-5.139 -3.6,-7.195c-1.684,-1.966 -3.826,-3.5 -6.197,-4.492l0.421,-0.381c5.191,-4.925 8.2,-11.972 8.197,-19.071c-0.002,-4.198 -1.052,-8.351 -2.962,-12.052l0.098,0.027c8.272,2.351 14.824,8.812 17.299,17.033l0,0.002c0.01,0.031 0.019,0.061 0.027,0.092c0.404,0.203 0.875,0.271 1.331,0.135c0.948,-0.282 1.571,-1.375 1.261,-2.376c0,0 -0.043,-0.151 0.019,-0.284c0.064,-0.137 0.168,-0.222 0.358,-0.228c0.009,0 0.018,0.001 0.027,0.001c0.08,0.008 0.093,0.016 0.127,0.03c0.166,0.071 0.236,0.262 0.281,0.463c0.288,1.287 -0.515,2.727 -1.8,3.136c-0.496,0.159 -1.032,0.146 -1.532,-0.003c0,0.039 -0.001,0.077 -0.001,0.116c0.002,3.391 1.719,6.352 4.367,8.075c-0.006,-0.005 -0.002,-0.002 0.001,0c2.518,1.734 5.569,2.749 8.855,2.748c0.067,0 0.133,-0.001 0.2,-0.002c0.063,0.001 0.126,0.001 0.19,0.001c-1.212,2.221 -1.9,4.767 -1.898,7.473c0.001,1.721 0.28,3.377 0.796,4.926l-0.001,0.007c1.033,2.755 1.599,5.739 1.6,8.853c0.001,1.369 -0.107,2.713 -0.317,4.023c-0.121,1.145 -1.091,2.039 -2.268,2.039c-0.053,0 -0.107,-0.002 -0.16,-0.005c-0.469,-0.07 -0.949,-0.106 -1.437,-0.106c-3.802,0.002 -7.092,2.204 -8.666,5.4l-0.001,0.001c-0.438,0.961 -0.971,1.871 -1.586,2.716Zm4.693,-38.074l-0.001,0c0.006,0.003 0.004,0.002 0.001,0Zm-62.858,-33.702c1.577,-1.2 3.542,-1.874 5.528,-1.884c0.039,0 0.079,0 0.118,0c3.394,0.036 6.56,2.038 8.076,4.99c0.616,1.202 0.946,2.541 0.987,3.889c-1.484,0.932 -3.239,1.471 -5.119,1.472c-4.929,0.002 -9.002,-3.696 -9.59,-8.467Zm8.91,-2.277c0,-0.033 0,-0.066 0,-0.099c-0.002,-3.242 1.598,-6.114 4.05,-7.867c3.667,1.369 6.282,4.905 6.284,9.047c0.001,3.033 -1.399,5.742 -3.588,7.514c-0.118,-1.274 -0.472,-2.524 -1.056,-3.662c-1.193,-2.325 -3.292,-4.073 -5.69,-4.933Z" style="fill:url(#_Radial1);"/><defs><radialGradient id="_Radial1" cx="0" cy="0" r="1" gradientUnits="userSpaceOnUse" gradientTransform="matrix(-76.0801,51.3788,-51.2327,-75.8639,98.7029,45.4793)"><stop offset="0" style="stop-color:#52e5e7;stop-opacity:1"/><stop offset="0.13" style="stop-color:#50e0e5;stop-opacity:1"/><stop offset="0.32" style="stop-color:#49c8e1;stop-opacity:1"/><stop offset="0.64" style="stop-color:#388fd4;stop-opacity:1"/><stop offset="1" style="stop-color:#275cc2;stop-opacity:1"/></radialGradient></defs></svg>